<svg width="24" height="24" viewBox="0 0 24 24" fill="none" xmlns="http://www.w3.org/2000/svg">
<g clip-path="url(#paint0_angular_9847_21705_clip_path)" data-figma-skip-parse="true"><g transform="matrix(0.01 0 0 0.01 12 12)"><foreignObject x="-1000" y="-1000" width="2000" height="2000"><div xmlns="http://www.w3.org/1999/xhtml" style="background:conic-gradient(from 90deg,rgba(0, 0, 0, 1) 0deg,rgba(0, 0, 0, 1) 242.308deg,rgba(0, 0, 0, 0) 342.692deg,rgba(0, 0, 0, 0) 360deg);height:100%;width:100%;opacity:1"></div></foreignObject></g></g><path d="M12 2C16.8379 2 20.8733 5.43553 21.7998 10H18.1094C17.2683 7.42912 14.8519 5.57129 12 5.57129C8.4496 5.57129 5.57129 8.4496 5.57129 12C5.57129 15.5504 8.4496 18.4287 12 18.4287C14.8519 18.4287 17.2683 16.5709 18.1094 14H21.7998C20.8733 18.5645 16.8379 22 12 22C6.47715 22 2 17.5228 2 12C2 6.47715 6.47715 2 12 2Z" data-figma-gradient-fill="{&#34;type&#34;:&#34;GRADIENT_ANGULAR&#34;,&#34;stops&#34;:[{&#34;color&#34;:{&#34;r&#34;:0.0,&#34;g&#34;:0.0,&#34;b&#34;:0.0,&#34;a&#34;:1.0},&#34;position&#34;:0.0},{&#34;color&#34;:{&#34;r&#34;:0.0,&#34;g&#34;:0.0,&#34;b&#34;:0.0,&#34;a&#34;:1.0},&#34;position&#34;:0.67307692766189575},{&#34;color&#34;:{&#34;r&#34;:0.0,&#34;g&#34;:0.0,&#34;b&#34;:0.0,&#34;a&#34;:0.0},&#34;position&#34;:0.95192307233810425},{&#34;color&#34;:{&#34;r&#34;:0.0,&#34;g&#34;:0.0,&#34;b&#34;:0.0,&#34;a&#34;:0.0},&#34;position&#34;:1.0}],&#34;stopsVar&#34;:[{&#34;color&#34;:{&#34;r&#34;:0.0,&#34;g&#34;:0.0,&#34;b&#34;:0.0,&#34;a&#34;:1.0},&#34;position&#34;:0.0},{&#34;color&#34;:{&#34;r&#34;:0.0,&#34;g&#34;:0.0,&#34;b&#34;:0.0,&#34;a&#34;:1.0},&#34;position&#34;:0.67307692766189575},{&#34;color&#34;:{&#34;r&#34;:0.0,&#34;g&#34;:0.0,&#34;b&#34;:0.0,&#34;a&#34;:0.0},&#34;position&#34;:0.95192307233810425},{&#34;color&#34;:{&#34;r&#34;:0.0,&#34;g&#34;:0.0,&#34;b&#34;:0.0,&#34;a&#34;:0.0},&#34;position&#34;:1.0}],&#34;transform&#34;:{&#34;m00&#34;:20.0,&#34;m01&#34;:2.9876440405841864e-13,&#34;m02&#34;:2.0,&#34;m10&#34;:2.2081997146615462e-13,&#34;m11&#34;:20.0,&#34;m12&#34;:2.0},&#34;opacity&#34;:1.0,&#34;blendMode&#34;:&#34;NORMAL&#34;,&#34;visible&#34;:true}"/>
<defs>
<clipPath id="paint0_angular_9847_21705_clip_path"><path d="M12 2C16.8379 2 20.8733 5.43553 21.7998 10H18.1094C17.2683 7.42912 14.8519 5.57129 12 5.57129C8.4496 5.57129 5.57129 8.4496 5.57129 12C5.57129 15.5504 8.4496 18.4287 12 18.4287C14.8519 18.4287 17.2683 16.5709 18.1094 14H21.7998C20.8733 18.5645 16.8379 22 12 22C6.47715 22 2 17.5228 2 12C2 6.47715 6.47715 2 12 2Z"/></clipPath></defs>
</svg>
