<svg preserveAspectRatio="none" width="100%" height="100%" overflow="visible" style="display: block;" viewBox="0 0 10.6781 12.894" fill="none" xmlns="http://www.w3.org/2000/svg">
<path id="Vector" d="M0 7.884H2.0925C2.1375 9.942 3.4875 11.008 5.41687 11.008C7.41562 11.008 8.60437 10.314 8.60437 9.05C8.60437 5.976 0.491249 9.398 0.491249 3.768C0.491249 1.168 2.92875 0 5.39625 0C8.28 0 10.4587 1.686 10.4869 4.736H8.42437C8.42437 2.826 7.09875 1.908 5.40187 1.908C4.07812 1.908 2.56688 2.308 2.56688 3.694C2.56688 6.918 10.6781 3.494 10.6781 8.976C10.6781 11.776 8.02875 12.894 5.37938 12.894C2.46375 12.894 0.11625 11.284 0 7.884Z" fill="var(--fill-0, #272220)"/>
</svg>
